<svg version="1.1" id="Layer_1" xmlns="http://www.w3.org/2000/svg" xmlns:xlink="http://www.w3.org/1999/xlink" x="0px" y="0px"
	 viewBox="0 0 40 40" style="enable-background:new 0 0 40 40;" xml:space="preserve">
<path style="fill:#DBA927;" d="M20.001,1.35C8.953,1.35,0,8.98,0,18.395c0,4.774,2.308,9.083,6.017,12.177
	c-0.811,4.535-6.06,6.376-5.702,7.624c4.437,1.77,13.323-2.131,15.486-3.139c1.355,0.247,2.758,0.383,4.2,0.383
	c11.048,0,20.001-7.63,20.001-17.045C40.003,8.98,31.047,1.35,20.001,1.35z M10.007,22.677c-2.025,0-3.668-1.793-3.668-4.002
	c0-2.209,1.643-4.002,3.668-4.002c2.025,0,3.668,1.793,3.668,4.002C13.675,20.884,12.032,22.677,10.007,22.677z M21.012,22.677
	c-2.025,0-3.668-1.793-3.668-4.002c0-2.209,1.643-4.002,3.668-4.002c2.025,0,3.668,1.793,3.668,4.002
	C24.68,20.884,23.037,22.677,21.012,22.677z M32.017,22.677c-2.025,0-3.668-1.793-3.668-4.002c0-2.209,1.643-4.002,3.668-4.002
	s3.668,1.793,3.668,4.002C35.686,20.884,34.042,22.677,32.017,22.677z"/>
</svg>
