<?xml version="1.0" encoding="iso-8859-1"?>
<!-- Generator: Adobe Illustrator 17.1.0, SVG Export Plug-In . SVG Version: 6.00 Build 0)  -->
<!DOCTYPE svg PUBLIC "-//W3C//DTD SVG 1.1//EN" "http://www.w3.org/Graphics/SVG/1.1/DTD/svg11.dtd">
<svg version="1.1" id="Layer_1" xmlns="http://www.w3.org/2000/svg" xmlns:xlink="http://www.w3.org/1999/xlink" x="0px" y="0px"
	 viewBox="0 0 40 40" style="enable-background:new 0 0 40 40;" xml:space="preserve">
<g>
	<g>
		<path style="fill:#494949;" d="M20.004,0.089c-11.054,0-20.015,8.958-20.015,20.01c0,11.052,8.961,20.01,20.015,20.01
			s20.015-8.958,20.015-20.01C40.019,9.047,31.059,0.089,20.004,0.089z M20.004,36.982c-9.327,0-16.888-7.559-16.888-16.883
			c0-9.325,7.561-16.883,16.888-16.883c9.327,0,16.888,7.559,16.888,16.883C36.892,29.423,29.331,36.982,20.004,36.982z
			 M21.272,14.495c0-0.779,0.806-0.96,1.182-0.96c0.374,0,2.249,0,2.249,0v-3.428l-2.578-0.013c-3.517,0-4.32,2.556-4.32,4.195
			v2.747h-2.552v3.532h2.552c0,4.535,0,9.536,0,9.536h3.466c0,0,0-5.053,0-9.536h2.944l0.538-3.532h-3.482V14.495z"/>
	</g>
</g>
</svg>
