<?xml version="1.0" encoding="iso-8859-1"?>
<!-- Generator: Adobe Illustrator 17.1.0, SVG Export Plug-In . SVG Version: 6.00 Build 0)  -->
<!DOCTYPE svg PUBLIC "-//W3C//DTD SVG 1.1//EN" "http://www.w3.org/Graphics/SVG/1.1/DTD/svg11.dtd">
<svg version="1.1" id="Layer_1" xmlns="http://www.w3.org/2000/svg" xmlns:xlink="http://www.w3.org/1999/xlink" x="0px" y="0px"
	 viewBox="0 0 40 40" style="enable-background:new 0 0 40 40;" xml:space="preserve">
<g>
	<g>
		<path style="fill:#494949;" d="M20.011,0.043c-11.065,0-20.035,8.918-20.035,19.921c0,11.003,8.969,19.921,20.035,19.921
			c11.065,0,20.035-8.918,20.035-19.921C40.046,8.962,31.076,0.043,20.011,0.043z M20.011,36.772
			c-9.336,0-16.904-7.525-16.904-16.808c0-9.283,7.568-16.808,16.904-16.808c9.336,0,16.904,7.525,16.904,16.808
			C36.915,29.247,29.347,36.772,20.011,36.772z M29.457,11.637c-0.582,0.398-1.919,0.977-2.579,0.977c0,0,0,0.002,0.001,0.003
			c-0.753-0.843-1.813-1.368-2.989-1.368c-2.282,0-4.133,1.981-4.133,4.426c0,0.339,0.038,0.669,0.106,0.986h-0.001
			c-3.096-0.085-6.716-1.747-8.755-4.591c-1.252,2.323-0.169,4.906,1.253,5.847c-0.485,0.04-1.383-0.06-1.805-0.499
			c-0.029,1.54,0.664,3.583,3.188,4.324c-0.487,0.281-1.345,0.201-1.721,0.139c0.132,1.303,1.834,3.005,3.694,3.005
			c-0.663,0.82-2.925,2.311-5.724,1.836c1.902,1.24,4.119,1.958,6.465,1.958c6.668,0,11.847-5.786,11.568-12.924
			c0-0.009-0.002-0.017-0.002-0.024c0-0.019,0.002-0.039,0.002-0.056c0-0.022-0.002-0.044-0.002-0.067
			c0.606-0.443,1.421-1.228,2.004-2.264c-0.338,0.199-1.35,0.597-2.294,0.697C28.34,13.691,29.236,12.546,29.457,11.637z"/>
	</g>
</g>
</svg>
