<?xml version="1.0" encoding="iso-8859-1"?>
<!-- Generator: Adobe Illustrator 17.1.0, SVG Export Plug-In . SVG Version: 6.00 Build 0)  -->
<!DOCTYPE svg PUBLIC "-//W3C//DTD SVG 1.1//EN" "http://www.w3.org/Graphics/SVG/1.1/DTD/svg11.dtd">
<svg version="1.1" id="Layer_1" xmlns="http://www.w3.org/2000/svg" xmlns:xlink="http://www.w3.org/1999/xlink" x="0px" y="0px"
	 viewBox="0 0 40 40" style="enable-background:new 0 0 40 40;" xml:space="preserve">
<g>
	<g>
		<path style="fill:#494949;" d="M20.123,0.089c-11.004,0-19.924,8.947-19.924,19.985s8.92,19.985,19.924,19.985
			c11.004,0,19.924-8.947,19.924-19.985S31.127,0.089,20.123,0.089z M20.123,36.937c-9.285,0-16.811-7.549-16.811-16.862
			S10.838,3.212,20.123,3.212c9.285,0,16.811,7.549,16.811,16.862S29.408,36.937,20.123,36.937z M27.714,20.091
			c0.298-0.386,0.534-0.696,0.708-0.93c1.256-1.678,1.801-2.75,1.634-3.217l-0.065-0.109c-0.043-0.066-0.156-0.126-0.338-0.181
			c-0.182-0.055-0.414-0.063-0.697-0.027l-3.137,0.022c-0.073-0.007-0.145-0.006-0.218,0.005c-0.073,0.011-0.12,0.022-0.142,0.033
			c-0.022,0.011-0.04,0.02-0.054,0.027l-0.043,0.033c-0.036,0.022-0.076,0.06-0.12,0.115c-0.043,0.055-0.08,0.118-0.109,0.192
			c-0.341,0.883-0.73,1.703-1.166,2.462c-0.269,0.452-0.516,0.845-0.74,1.176c-0.225,0.332-0.414,0.576-0.566,0.733
			c-0.153,0.157-0.291,0.283-0.414,0.377c-0.124,0.095-0.218,0.135-0.283,0.121c-0.065-0.015-0.127-0.029-0.185-0.044
			c-0.102-0.066-0.183-0.155-0.245-0.268c-0.062-0.113-0.104-0.255-0.125-0.427c-0.022-0.171-0.035-0.319-0.038-0.443
			c-0.004-0.124-0.002-0.299,0.006-0.525c0.007-0.226,0.011-0.379,0.011-0.459c0-0.277,0.006-0.578,0.016-0.903
			c0.011-0.324,0.02-0.582,0.027-0.771c0.007-0.189,0.011-0.39,0.011-0.602c0-0.211-0.013-0.377-0.038-0.498
			c-0.026-0.12-0.064-0.237-0.114-0.35c-0.051-0.113-0.125-0.201-0.223-0.262c-0.098-0.062-0.22-0.111-0.365-0.148
			c-0.385-0.088-0.875-0.134-1.47-0.142c-1.351-0.014-2.219,0.073-2.603,0.263c-0.153,0.08-0.291,0.19-0.414,0.328
			c-0.131,0.161-0.149,0.248-0.054,0.263c0.436,0.066,0.744,0.223,0.926,0.471l0.065,0.131c0.051,0.095,0.102,0.263,0.152,0.504
			c0.051,0.241,0.083,0.507,0.098,0.799c0.036,0.532,0.036,0.988,0,1.368c-0.036,0.38-0.071,0.675-0.104,0.886
			c-0.033,0.212-0.082,0.383-0.147,0.514c-0.065,0.132-0.109,0.212-0.131,0.241c-0.022,0.029-0.04,0.047-0.054,0.055
			c-0.095,0.036-0.192,0.055-0.294,0.055s-0.225-0.051-0.37-0.154c-0.145-0.102-0.296-0.242-0.452-0.421
			c-0.156-0.179-0.332-0.429-0.528-0.75c-0.196-0.321-0.399-0.7-0.61-1.138l-0.174-0.318c-0.109-0.204-0.258-0.501-0.447-0.891
			c-0.189-0.39-0.356-0.768-0.501-1.133c-0.058-0.153-0.145-0.27-0.261-0.35l-0.054-0.033c-0.036-0.029-0.094-0.06-0.174-0.093
			c-0.08-0.033-0.163-0.056-0.251-0.071l-2.984,0.022c-0.305,0-0.512,0.07-0.621,0.208L9.197,15.9
			c-0.022,0.037-0.033,0.095-0.033,0.175c0,0.081,0.022,0.179,0.065,0.295c0.436,1.029,0.91,2.021,1.422,2.976
			c0.512,0.956,0.957,1.725,1.334,2.309c0.378,0.584,0.762,1.134,1.155,1.652c0.392,0.518,0.652,0.85,0.779,0.995
			c0.127,0.146,0.227,0.256,0.3,0.328l0.272,0.263c0.174,0.175,0.43,0.385,0.768,0.629s0.711,0.485,1.122,0.722
			c0.41,0.237,0.888,0.43,1.432,0.58s1.075,0.21,1.59,0.181h1.253c0.254-0.022,0.447-0.102,0.577-0.241l0.044-0.055
			c0.029-0.044,0.056-0.111,0.082-0.202c0.025-0.091,0.038-0.192,0.038-0.301c-0.008-0.314,0.016-0.597,0.071-0.848
			c0.054-0.252,0.116-0.441,0.185-0.569c0.069-0.127,0.147-0.235,0.234-0.323c0.087-0.088,0.149-0.14,0.185-0.158
			c0.036-0.018,0.065-0.031,0.087-0.038c0.174-0.058,0.379-0.002,0.615,0.169c0.236,0.172,0.457,0.383,0.664,0.635
			c0.207,0.252,0.456,0.534,0.746,0.848c0.29,0.314,0.544,0.547,0.762,0.7l0.218,0.132c0.145,0.087,0.334,0.167,0.566,0.241
			c0.232,0.073,0.436,0.091,0.61,0.055l2.789-0.044c0.276,0,0.49-0.045,0.643-0.137c0.153-0.091,0.243-0.192,0.272-0.301
			c0.029-0.109,0.031-0.233,0.005-0.372c-0.025-0.138-0.051-0.235-0.076-0.29c-0.026-0.055-0.049-0.1-0.071-0.137
			c-0.363-0.656-1.057-1.463-2.08-2.418l-0.022-0.022l-0.011-0.011l-0.011-0.01h-0.011c-0.465-0.445-0.759-0.744-0.882-0.898
			c-0.225-0.291-0.276-0.587-0.153-0.886C26.821,21.298,27.148,20.82,27.714,20.091z"/>
	</g>
</g>
</svg>
